 <!DOCTYPE svg PUBLIC "-//W3C//DTD SVG 1.1//EN" "http://www.w3.org/Graphics/SVG/1.1/DTD/svg11.dtd"><svg class="icon" width="200" height="200" style="vertical-align:middle;fill:currentColor;overflow:hidden;" viewBox="0 0 1024 1024" version="1.1" xmlns="http://www.w3.org/2000/svg">
<path d="M500 31.25C758.883475 31.25 968.75 241.116523 968.75 500C968.75 758.883475 758.883475 968.75 500 968.75C241.116523 968.75 31.25 758.883475 31.25 500C31.25 241.116523 241.116523 31.25 500 31.25zM575.3159 349.992109C563.112019 337.788224 543.325613 337.788224 531.121728 349.992109L391.532022 489.581813C384.483366 496.630472 381.505834 506.208606 382.599434 515.394291C381.502391 524.57035 384.479284 534.155491 391.532022 541.208228L531.121728 680.797934C543.325613 693.001819 563.112019 693.001819 575.3159 680.797934L592.383022 663.730816C604.586906 651.526931 604.586906 631.740525 592.383022 619.536641L488.21875 515.375L592.383022 411.2534C603.648144 399.988278 604.514694 382.262306 594.982666 370.003206L592.383022 367.059228z">
</path>
</svg>